<svg id="Layer_1" data-name="Layer 1" xmlns="http://www.w3.org/2000/svg" viewBox="0 0 660.99 579.45"><title>logow</title><circle cx="179.59" cy="28.57" r="25.62" style="fill:#fff;stroke:#fff;stroke-miterlimit:10;stroke-width:5.91137081993237px"/><circle cx="483.04" cy="28.57" r="25.62" style="fill:#fff;stroke:#fff;stroke-miterlimit:10;stroke-width:5.91137081993237px"/><circle cx="497.82" cy="197.05" r="26.6" style="fill:#fff;stroke:#fff;stroke-miterlimit:10;stroke-width:5.91137081993237px"/><circle cx="160.87" cy="190.15" r="26.6" style="fill:#fff;stroke:#fff;stroke-miterlimit:10;stroke-width:5.91137081993237px"/><circle cx="176.85" cy="554.51" r="22.45" style="fill:#fff;stroke:#fff;stroke-miterlimit:10;stroke-width:4.988478433133116px"/><circle cx="485.6" cy="554.51" r="22.45" style="fill:#fff;stroke:#fff;stroke-miterlimit:10;stroke-width:4.988478433133116px"/><circle cx="331.31" cy="485.72" r="22.45" style="fill:#fff;stroke:#fff;stroke-miterlimit:10;stroke-width:4.988478433133116px"/><circle cx="187.47" cy="371.43" r="22.45" style="fill:#fff;stroke:#fff;stroke-miterlimit:10;stroke-width:4.988478433133116px"/><circle cx="471.22" cy="371.43" r="22.45" style="fill:#fff;stroke:#fff;stroke-miterlimit:10;stroke-width:4.988478433133116px"/><circle cx="331.31" cy="131.04" r="22.45" style="fill:#fff;stroke:#fff;stroke-miterlimit:10;stroke-width:4.988478433133116px"/><circle cx="26.22" cy="287.03" r="23.97" style="fill:#fff;stroke:#fff;stroke-miterlimit:10;stroke-width:4.495097964868802px"/><circle cx="634.76" cy="287.03" r="23.97" style="fill:#fff;stroke:#fff;stroke-miterlimit:10;stroke-width:4.495097964868802px"/><line x1="205.2" y1="28.57" x2="458.61" y2="28.57" style="fill:#fff;stroke:#fff;stroke-miterlimit:10;stroke-width:4.988478433133116px"/><line x1="199.29" y1="44.93" x2="316.43" y2="114.27" style="fill:#fff;stroke:#fff;stroke-miterlimit:10;stroke-width:4.988478433133116px"/><line x1="461.53" y1="42.47" x2="346.22" y2="114.27" style="fill:#fff;stroke:#fff;stroke-miterlimit:10;stroke-width:4.988478433133116px"/><line x1="165.02" y1="49.63" x2="35.75" y2="263.06" style="fill:#fff;stroke:#fff;stroke-miterlimit:10;stroke-width:4.988478433133116px"/><line x1="179.59" y1="54.19" x2="160.87" y2="163.55" style="fill:#fff;stroke:#fff;stroke-miterlimit:10;stroke-width:4.988478433133116px"/><line x1="485.6" y1="56.94" x2="497.82" y2="170.44" style="fill:#fff;stroke:#fff;stroke-miterlimit:10;stroke-width:4.988478433133116px"/><line x1="501.21" y1="46.62" x2="624.75" y2="265.27" style="fill:#fff;stroke:#fff;stroke-miterlimit:10;stroke-width:4.988478433133116px"/><line x1="624.75" y1="308.8" x2="495.56" y2="534.41" style="fill:#fff;stroke:#fff;stroke-miterlimit:10;stroke-width:4.988478433133116px"/><line x1="613.37" y1="297.81" x2="491.71" y2="362.3" style="fill:#fff;stroke:#fff;stroke-miterlimit:10;stroke-width:4.988478433133116px"/><line x1="471.22" y1="393.88" x2="483.04" y2="532.06" style="fill:#fff;stroke:#fff;stroke-miterlimit:10;stroke-width:4.988478433133116px"/><line x1="479.99" y1="216.75" x2="341.45" y2="465.68" style="fill:#fff;stroke:#fff;stroke-miterlimit:10;stroke-width:18.085795734952683px"/><line x1="170.19" y1="214.14" x2="319.31" y2="466.77" style="fill:#fff;stroke:#fff;stroke-miterlimit:10;stroke-width:18.085795734952683px"/><line x1="35.75" y1="311" x2="166.87" y2="534.41" style="fill:#fff;stroke:#fff;stroke-miterlimit:10;stroke-width:4.988478433133116px"/><line x1="199.29" y1="554.51" x2="463.15" y2="554.51" style="fill:#fff;stroke:#fff;stroke-miterlimit:10;stroke-width:4.988478433133116px"/><line x1="312.25" y1="497.52" x2="199.29" y2="547.79" style="fill:#fff;stroke:#fff;stroke-miterlimit:10;stroke-width:4.988478433133116px"/><line x1="351.91" y1="497.52" x2="463.15" y2="547.79" style="fill:#fff;stroke:#fff;stroke-miterlimit:10;stroke-width:4.988478433133116px"/><line x1="187.47" y1="393.88" x2="176.85" y2="532.06" style="fill:#fff;stroke:#fff;stroke-miterlimit:10;stroke-width:4.988478433133116px"/><line x1="47.62" y1="297.81" x2="170.23" y2="357.06" style="fill:#fff;stroke:#fff;stroke-miterlimit:10;stroke-width:4.988478433133116px"/><line x1="317.6" y1="145.82" x2="196.58" y2="350.92" style="fill:#fff;stroke:#fff;stroke-miterlimit:10;stroke-width:18.085795734952683px"/><line x1="344.87" y1="145.37" x2="458.61" y2="352.86" style="fill:#fff;stroke:#fff;stroke-miterlimit:10;stroke-width:18.085795734952683px"/><line x1="139.42" y1="205.83" x2="47.6" y2="276.22" style="fill:#fff;stroke:#fff;stroke-miterlimit:10;stroke-width:4.988478433133116px"/><line x1="521.35" y1="209.43" x2="613.37" y2="276.22" style="fill:#fff;stroke:#fff;stroke-miterlimit:10;stroke-width:4.988478433133116px"/><line x1="257.86" y1="242.82" x2="397.31" y2="242.82" style="fill:#fff;stroke:#fff;stroke-miterlimit:10;stroke-width:18.085795734952683px"/><line x1="187.47" y1="190.15" x2="308.87" y2="131.04" style="fill:#fff;stroke:#fff;stroke-miterlimit:10;stroke-width:4.988478433133116px"/><line x1="472.15" y1="190.15" x2="353.76" y2="131.04" style="fill:#fff;stroke:#fff;stroke-miterlimit:10;stroke-width:4.988478433133116px"/><line x1="207.43" y1="381.67" x2="308.87" y2="481.28" style="fill:#fff;stroke:#fff;stroke-miterlimit:10;stroke-width:4.988478433133116px"/><line x1="353.76" y1="485.72" x2="448.77" y2="381.67" style="fill:#fff;stroke:#fff;stroke-miterlimit:10;stroke-width:4.988478433133116px"/></svg>